<?xml version="1.0" encoding="UTF-8"?>
<svg id="Layer_2" xmlns="http://www.w3.org/2000/svg" viewBox="0 0 240.21 176.82">
  <defs>
    <style>
      .cls-1 { fill: #231f20; stroke: #231f20; stroke-width: 0.5; }
      .cls-2 { fill: none; stroke: #000; stroke-miterlimit: 10; }
    </style>
  </defs>
  <g id="Layer_1-2">
    <g id="Backdrop">
      <circle class="cls-1" cx="120" cy="88" r="70"/>
    </g>
    <g id="Fish">
      <path class="cls-1" d="M113.78,64.59s0,.01,0,.03c0,.03,0,.04.01.03,0,0,.01-.03,0-.05,0-.01,0-.01-.01-.01h0Z"/>
      <path class="cls-1" d="M115.37,64.6s-.02,0-.03,0h0s-.02.01.02.01c.03,0,.04,0,.04-.01,0,0-.01,0-.02,0h0Z"/>
      <path class="cls-1" d="M130.71,64.61s0,.01,0,.03c0,.03,0,.04.01.03,0,0,.01-.03,0-.05,0-.01,0-.01-.01-.01Z"/>
      <path class="cls-1" d="M127.23,64.63s0,.01,0,.03c0,.03,0,.04.01.03,0,0,.01-.03,0-.05,0-.01,0-.01-.01-.01h0Z"/>
      <path class="cls-1" d="M127.39,64.71s0,.01,0,.03c0,.03,0,.04.01.03,0,0,.01-.03,0-.05,0-.01,0-.01-.01-.01h0Z"/>
      <path class="cls-1" d="M114.48,64.81s0,.01,0,.04c0,.03,0,.05.01.03,0-.02,0-.05,0-.06,0,0,0,0,0,0h0Z"/>
      <path class="cls-1" d="M113.68,65.06s0,0,.01.01c0,.02,0,.04,0,.05,0,0-.02,0-.01-.03,0-.01,0-.02,0-.03h0Z"/>
      <path class="cls-1" d="M116.47,65.08s-.03,0-.04.02c-.03.02-.02.03.02.01.03,0,.04-.02.03-.03,0,0,0,0,0,0Z"/>
      <path class="cls-1" d="M127.71,65.16s-.02,0-.03,0h0s-.02.01.02.02c.03,0,.04,0,.04-.01,0,0-.01,0-.02,0h0Z"/>
      <path class="cls-1" d="M129.58,65.16s0,.01,0,.03c0,.03,0,.04.01.03s.01-.03,0-.05c0-.01,0-.01-.01-.01h0Z"/>
      <path class="cls-1" d="M114.87,65.26s-.02,0-.03,0h0s-.02.01.02.01c.03,0,.05,0,.04-.01,0,0-.01,0-.02,0h0Z"/>
      <path class="cls-1" d="M113.65,65.26s0,0,.01.01h0s0,.04,0,.05c0,0-.02,0-.01-.03,0-.01,0-.02,0-.03h0Z"/>
      <path class="cls-1" d="M115.45,65.36s-.02,0-.03,0c-.02,0,0,.01.03.01s.05,0,.03-.01c0,0-.02,0-.03,0Z"/>
      <path class="cls-1" d="M128.43,65.46s.02,0,.03,0c.02,0,0,.01-.03.01s-.05,0-.03-.01c0,0,.02,0,.03,0Z"/>
      <path class="cls-1" d="M128.97,65.56s-.02,0-.03,0h0s-.02.01.02.01c.03,0,.04,0,.04-.01,0,0-.01,0-.02,0h0Z"/>
      <path class="cls-1" d="M119.57,65.57s0,0,0,0c0,.02,0,.05,0,.06,0,.02-.01,0-.01-.03,0-.03,0-.04,0-.04h0Z"/>
      <path class="cls-1" d="M117.42,65.71s.02,0,.02,0h0s0,.01-.04.01c-.03,0-.04,0-.02-.02,0,0,.02,0,.03,0h0Z"/>
      <path class="cls-1" d="M114.28,65.76s0,.01,0,.03c0,.03,0,.04.01.03,0,0,0-.03,0-.05,0-.01,0-.01-.01-.01Z"/>
      <path class="cls-1" d="M126.44,57.79c.06.18.13.36.13.55-.03.2-.07.09-.25.07-.01,0,0,.03.02.03.17-.01.19-.1.18-.03,0,.04,0,.07.01.11,0,.02-.24.04-.24.02,0-.06-.01-.11,0-.17.02-.09,0-.08.2-.12.02,0,.06.03.04.04-.05.01-.11-.02-.17,0-.03,0-.03.05-.03.08-.04-.17-.08-.34-.13-.51,0-.02.24-.07.24-.06h0Z"/>
      <path class="cls-1" d="M126.71,59.29c.01.19,0,.38,0,.56,0,.02-.24.02-.24,0,0-.19-.01-.38,0-.56,0-.02.25-.02.25,0h0Z"/>
    </g>
    <g id="cevicheText">
      <text x="140" y="95" font-family="Arial, sans-serif" font-size="24" font-weight="bold" fill="#fff">Ceviche</text>
    </g>
  </g>
</svg>
