<?xml version="1.0" encoding="UTF-8"?>
<svg id="CevicheLogo" xmlns="http://www.w3.org/2000/svg" viewBox="0 0 240.21 176.82">
  <defs>
    <style>
      .cls-1 {
        fill: #f0f0f0;
        font-family: "Palatino Linotype", "Book Antiqua", Palatino, serif;
        font-size: 60px;
        text-anchor: middle;
      }

      .cls-2 {
        fill: none;
        stroke: #f0f0f0;
        stroke-miterlimit: 10;
        stroke-width: 2px;
      }

      .cls-3 {
        fill: #ee3a39;
      }

      .fish-details-group {
        fill: #231f20;
      }
    </style>

    <filter id="liquid-filter" x="-50%" y="-50%" width="200%" height="200%">
      <feGaussianBlur in="SourceGraphic" stdDeviation="10" result="blur" />
      <feColorMatrix in="blur" mode="matrix" values="1 0 0 0 0  0 1 0 0 0  0 0 1 0 0  0 0 0 20 -10" result="liquid" />
      <feComposite in="SourceGraphic" in2="liquid" operator="atop"/>
    </filter>

    <clipPath id="text-clip">
      <rect id="clip-rect" x="-10" y="-80" width="260" height="90" />
    </clipPath>
  </defs>

  <g id="Layer_1-2" data-name="Layer_1">
    <g id="Ceviche" transform="translate(24.021, 10) scale(0.8)">
      <circle id="Backdrop" class="cls-3" cx="120.11" cy="52.06" r="34.39" filter="url(#liquid-filter)"/>

      <g id="fishDetails" class="fish-details-group">
        <path d="M132.31,37.07c-.03.06-.08.06-.08,0,0-.02.01-.04.03-.04.04,0,.03-.07-.02-.09-.07-.02-.07-.02-.05.04.01.03,0,.05-.02.05-.06,0-.22-.1-.22-.14,0-.02-.03-.04-.08-.04-.07,0-.07-.02-.07-.09,0-.05,0-.08-.02-.08h0s-.03.02-.04.06c-.02.08-.07.08-.07.01,0-.06-.04-.07-.06-.02-.02.04.09.14.14.14.02,0,.04.02.05.04,0,.02.03.04.05.04s.06.02.08.05c.03.03.07.05.09.04.02,0,.03,0,.03.04,0,.05,0,.05.06.05.05,0,.06,0,.03.01-.03.02-.03.03,0,.05.02.02.05.02.07.02.01,0,.03.02.04.06,0,.04.03.08.04.09.04.02.03-.05,0-.09-.03-.03-.03-.03,0-.02.02,0,.06.06.08.11.02.05.06.12.09.15.03.03.05.08.05.12s.01.07.03.07.03-.01.03-.03.02-.03.05-.03.06-.01.07-.03c.03-.04.07-.03.07.01,0,.04.09.07.16.05.05-.01.06,0,.06.06,0,0,0,.04-.02.08-.01.04-.01.05,0,.03.02-.02.06-.03.12-.02.09.02.14-.01.07-.05-.01,0,.02-.06.08-.12.09-.08.11-.12.1-.19,0-.08,0-.08-.13-.07-.08,0-.16,0-.21-.03-.08-.04-.13-.12-.09-.14.01,0,.03,0,.04.03.01.04.03.04.09.03.04,0,.07-.02.07-.03,0-.03-.13-.08-.21-.08-.04,0-.09-.01-.1-.03-.01-.02-.03-.02-.08,0-.05.03-.06.02-.09-.03-.02-.03-.05-.06-.07-.06s-.04-.02-.05-.04c-.02-.05-.21-.04-.24.02ZM133.24,37.49s.01,0,.02,0c0,0,.01.03,0,.05,0,.03-.02.03-.03,0-.02-.03,0-.05,0-.06ZM132.37,37.21c-.09,0-.09-.03.01-.05.01,0,.02,0,.03,0,.03,0,.04,0,.04.02,0,.02-.04.03-.08.03ZM132.56,37.18h0s.02,0,.03,0c.06.03.08.08.08.16,0,.03.01.04.03.04.01,0,.03,0,.04.02.01.02.02.02.04,0,.03-.03.03-.03.03,0,0,.02.02.05.03.05.03,0,.02.02,0,.05-.05.05-.15.03-.13-.02,0-.02,0-.03,0-.02-.04.02-.11-.01-.11-.05,0-.02-.01-.04-.03-.04s-.05-.02-.07-.04c-.04-.03-.04-.04,0-.1.03-.04.04-.05.07-.05ZM132.46,37.09s-.02.03-.03.03-.02-.01-.03-.03c0-.01,0-.03.03-.03s.04.01.03.03Z"/>
        <path d="M127.36,51.79s0,.06.07.06c.04,0,.07.02.07.05,0,.04.03.05.09.05.06,0,.08,0,.07.04,0,.03.01.04.05.05.03,0,.09.04.12.08.05.06.07.07.1.05.03-.02.04-.02.04.02,0,.03.02.06.05.08.03.01.05.05.05.07s.02.05.04.06c.03.01.04.04.03.08-.01.07,0,.08.06.03.03-.03.04-.02.06.01.02.04.04.04.07.02.03-.02.03-.02.02.04-.01.06,0,.07.05.05.04-.01.07,0,.08.02.02.04.15.07.17.04.03-.04.07-.02.05.02-.03.06.04.16.11.16.04,0,.06-.01.05-.03-.01-.04.03-.11.06-.08.01,0,0,.05-.01.08-.04.09-.02.12.11.11.16,0,.16,0,.08.06-.06.05-.07.07-.04.1.04.05.09.05.07,0,0-.02,0-.05.03-.07.04-.03.05-.03.09.04.03.05.03.05.06-.02.04-.1.04-.14-.01-.13-.03,0-.05,0-.06-.03-.02-.06-.14-.12-.16-.08-.03.04-.06-.01-.07-.09,0-.04-.01-.07-.02-.07s-.03-.03-.05-.06-.05-.06-.07-.06-.05-.02-.07-.05c-.02-.03-.05-.05-.08-.05-.03,0-.04,0-.01.02.05.03,0,.12-.05.12-.02,0-.04.01-.03.03,0,.02,0,.03-.02.03-.02,0-.03-.05-.01-.15,0-.09,0-.15,0-.15-.02,0-.11.13-.1.15,0,0-.01,0-.03-.02-.04-.03-.02-.1.02-.07.02.01.06-.11.06-.2,0-.03-.02-.08-.04-.1-.04-.05-.04-.05-.03.02,0,.05,0,.07-.02.07-.02,0-.04-.01-.04-.03,0-.02-.01-.01-.03.01-.04.06-.08.06-.06,0,.01-.05-.07-.13-.11-.11-.01,0-.03,0-.04-.02,0-.01-.03-.02-.04-.01-.01,0-.03,0-.03-.04,0-.03-.02-.05-.05-.05s-.06-.03-.08-.08c-.03-.08-.04-.09-.12-.06-.03.01-.05,0-.05-.02,0-.02.02-.04.04-.05.05-.02.05-.05,0-.05h0s-.01,0-.02,0c-.03,0-.07.05-.1.1-.06.11-.07.12-.15.06-.09-.06-.2-.09-.23-.05ZM128.84,52.73s0,0,.01,0c.02,0,.03.02.03.03s-.01.01-.03.01-.03-.01-.03-.03c0-.01,0-.02.02-.01ZM128.31,52.29s.05-.02.07-.04c.01-.02.02-.03.02-.03s0,.01,0,.04c0,.03-.01.06-.03.07-.01,0-.02.03-.01.05.02.05-.04.04-.07-.01-.04-.06-.04-.08.01-.08ZM128.07,52.12s.04-.02.05-.04c0,0,0,0,0,0h0s.01,0,.01.03c0,.03-.01.07-.02.1-.02.05-.02.05-.05-.01-.02-.04-.02-.07,0-.07ZM127.88,51.88s0,0,.02.02c.01.02.03.06.03.08,0,.02-.01.04-.03.04s-.03-.04-.03-.08c0-.04,0-.06,0-.06Z"/>
        <path d="M127.9,48.92c.07.06.13.07.13.03,0-.01-.02-.03-.04-.03s-.06-.02-.09-.04c-.03-.02-.09-.06-.13-.07-.1-.03-.1-.07,0-.08.1,0,.12-.04.02-.04-.05,0-.09.01-.1.03-.02.03-.14.03-.21,0-.06-.03-.07,0-.02.04.02.02.02.04-.01.06-.05.04-.06.17-.01.27.03.08.01.11-.03.07-.05-.04-.05-.3,0-.32.02,0,.04-.03.03-.04,0-.01-.02-.02-.03-.02-.01,0-.04-.03-.06-.07l-.03-.08-.02.06s0,.07.03.09c.04.03.04.04.02.09-.02.04-.04.05-.07.03-.02-.01-.06-.02-.08-.01-.03.01-.04,0-.03-.02,0-.02.03-.03.05-.03.03,0,.04-.02.03-.07,0-.05-.03-.07-.06-.07-.03,0-.06-.02-.08-.04-.02-.03-.04-.03-.04-.02,0,.02-.07-.02-.14-.09-.1-.09-.14-.11-.18-.1-.05.02-.05.02,0,.07.03.03.05.05.03.05-.04,0-.03.04.02.09.04.04.04.04,0,.04-.02,0-.04.02-.04.04,0,.02.03.04.07.04.06,0,.07.01.07.09,0,.1-.03.11-.11.04-.03-.03-.06-.05-.08-.05s-.02-.04-.02-.08c0-.06-.01-.08-.04-.08s-.04.02-.03.08c0,.05,0,.08-.02.07-.01,0-.02,0-.02.02,0,.02,0,.04-.02.04-.01,0-.03-.03-.04-.09,0-.06-.03-.11-.05-.13-.04-.03-.04-.03,0-.03.05,0,.06-.03.01-.07-.03-.02-.02-.03.03-.05.05-.01.06-.03.05-.08-.02-.09-.04-.1-.12-.08-.05.02-.06.04-.06.14,0,.06-.01.11-.03.11s-.03.02-.03.04c0,.06-.05.05-.07-.01,0-.03-.03-.05-.04-.05s-.03.02-.03.05c0,.04-.02.05-.08.05-.13,0-.17-.02-.15-.1.02-.09.03-.1.08-.04.04.04.04.04.04,0,0-.02-.01-.04-.03-.04s-.03-.02-.03-.04-.01-.04-.03-.04c-.03,0-.07.07-.09.18-.01.05-.03.06-.06.05-.02,0-.03-.03-.02-.04.01-.02,0-.02-.05-.01-.02,0-.05,0-.07,0l-.04-.06s.03-.08.02-.09c-.02-.03.11-.08.15-.06.01,0,.04,0,.05-.02.02-.03.05-.03.09-.01.03.01.08.04.11.05.04.02.06.02.07,0,0-.01.03-.02.04-.01.04.02.05-.03.02-.13-.02-.05-.04-.08-.04-.07,0,.02-.06.03-.13.03-.07,0-.12-.01-.11-.02.01-.02,0-.03-.01-.04h0s-.04,0-.06.02c-.02.02-.05.04-.07.04-.03,0-.03.01,0,.06.03.05.03.05-.02.02-.03-.02-.08-.05-.12-.05-.06-.01-.07,0-.06.07,0,.04.02.13.03.19l.02.11s-.03-.01-.04-.02c-.05-.04-.05-.04-.05.01,0,.03-.01.05-.03.05s-.02-.03-.02-.08c0-.05.02-.08.04-.08.03,0,.03-.02.02-.06-.01-.03-.02-.08-.02-.11,0-.1-.06-.07-.07.04,0,.08-.02.1-.03.07-.03-.07-.08-.05-.06.03.04.15.04.21,0,.21-.02,0-.04.01-.04.03,0,.05-.12.03-.2-.02-.04-.03-.07-.06-.07-.08,0-.02,0-.03-.03-.01-.02.02-.02.06,0,.12.02.07.04.09.07.08.03-.01.04,0,.01.02-.03.04-.03.05.04.16,0,0,.02,0,.05-.02.03-.02.04-.02.06,0,.03.05.13.03.14-.03.02-.05.02-.05.04,0,.02.04.02.04.02-.02,0-.13.08-.06.08.07,0,.07.05.16.08.16.02,0,.02-.04.01-.11-.01-.09-.01-.1.01-.05.03.06.03.06.07.01.04-.04.04-.04.03.05-.01.06,0,.09.01.09.02,0,.03-.02.03-.04s.02-.07.04-.1c.02-.03.03-.07.02-.09,0-.02,0-.04.01-.04s.03.02.03.04c0,.04.08.14.12.14.01,0,.04-.04.06-.08l.04-.08v.08c0,.09.07.14.11.08.02-.02.03-.02.04,0,.01.03.03.03.07.02.06-.03.29-.02.4,0,.07.02.08.02.06-.02-.03-.08.04-.04.07.04.03.07.04.08.06.04.02-.04.03-.03.11.05.05.05.1.08.12.08.02,0,.03,0,.03.02h0s0,.03.05,0q.05-.03,0-.05c-.08-.03-.07-.06,0-.03.1.03.27.03.27,0,0-.01,0-.05,0-.08,0-.04,0-.04.01,0,.02.06.07.06.08,0,.01-.04.03-.05.11-.03.07,0,.09,0,.07-.01-.02-.01-.06-.03-.11-.03-.04,0-.1-.02-.13-.05-.06-.05-.06-.11,0-.09.03,0,.04,0,.04-.02,0-.02.01-.04.03-.04.02,0,.02.03.01.08-.02.07-.01.08.05.08.09,0,.16.06.14.13-.01.04-.04.05-.1.05-.08,0-.08,0-.03.04.06.04.17.05.14.02,0-.01,0-.04.03-.07.03-.04.04-.04.07-.01.01.02.03.03.04.02.03-.02-.01-.1-.04-.08-.01,0-.03,0-.03-.04,0-.03-.02-.05-.03-.04-.03,0-.08-.11-.06-.13,0,0,.04.01.08.04ZM125.25,48.87s-.03-.01-.03-.02.01-.03.03-.04c0,0,0,0,.01,0,0,0,.02.01.02.03,0,.02-.01.04-.03.04ZM125.77,48.87s-.05.03-.06-.01c0-.02-.05-.04-.1-.04-.07,0-.08,0-.08-.04,0-.02.03-.04.06-.04.03,0,.05-.01.05-.03,0-.01.01-.02.03-.02.03,0,.08.01.12.04.05.04.06.12.02.12-.02,0-.04.01-.04.03ZM125.83,48.9s-.02.03-.03.03-.01-.01-.01-.03.01-.03.03-.03.02.01.01.03ZM126.14,48.8s-.04-.01-.04-.03.02-.03.04-.03s.04.01.04.03-.02.03-.04.03ZM126.23,49s-.03-.01-.03-.03c0-.01,0-.02.02-.01h0s0,0,.01,0c.02,0,.03.02.03.03s-.01.01-.03.01ZM126.95,49.05s-.01-.03,0-.04c0,0,0,0,0,0h0s.02.01.02.03c.02.04,0,.05-.02.01ZM127.1,48.83c-.04.07-.07.09-.07.03,0-.02.01-.04.03-.04s.03-.02.03-.04-.01-.04-.03-.04-.03.01-.03.03-.01.02-.03.01c-.02,0-.03,0-.03.02s-.01.04-.03.04c-.07,0,0-.13.07-.14.01,0,.02,0,.03,0h0c.06,0,.09.06.06.13ZM127.17,49.01s-.03.04-.04,0c-.02-.04,0-.08.02-.08,0,0,.02,0,.03.01h0s.02.04,0,.07ZM127.64,48.82s-.04.03-.07.03c-.03,0-.06.02-.07.05,0,.03-.02.05-.04.05-.03,0,0-.08.06-.12.03-.02.06-.03.09-.03.03,0,.05,0,.03.02Z"/>
        <path d="M126.04,45.89s.08-.06.09-.05c.01,0,.02,0,.02-.04s.01-.05.03-.04c.04.02.05-.04.02-.12-.01-.03-.02-.05-.04-.05,0,0,0,0-.01,0,0,0-.02,0-.03.01-.04.02-.04.03,0,.05.02.02.03.05.02.08-.02.06-.09.08-.09.02,0-.05-.05-.08-.09-.04-.02.02-.02.04.02.07.05.03.05.04,0,.07-.03.02-.04.05-.03.07.02.02.04.01.09-.03Z"/>
        <path d="M127.17,57.8s.09.04.12,0c.02-.03.11-.03.18,0,.05.03.06.02.1-.03l.05-.06.04.06c.04.06.04.06.02-.02-.01-.07,0-.08.03-.08.02,0,.05-.02.06-.04.04-.1.14-.16.26-.15.09,0,.12,0,.16-.06.03-.03.05-.08.05-.09,0-.02.02-.03.04-.03s.04-.02.04-.04c0-.03.02-.03.05-.02.03,0,.07,0,.09-.02.02-.02.06-.04.07-.04s.03-.02.03-.04c0-.04.04-.05.07-.01.02.04.08.03.06,0,0-.02.01-.06.04-.1.04-.05.07-.07.12-.05.05.01.07,0,.1-.04l.03-.05.08.05c.08.05.09.05.05-.03-.02-.04-.02-.05.02-.06.09-.03.12-.08.09-.14-.02-.03-.02-.05,0-.05.02,0,.03.02.03.04,0,.05.05.07.09.04.04-.03.03-.13-.02-.13-.01,0-.02-.01-.02-.03s.02-.02.05-.01c.07.02.07,0,0-.05-.01,0-.02-.01-.04-.01h0s-.09.01-.14.05c0,0-.05.03-.09.05s-.08.05-.09.08c-.01.05-.12.05-.16,0-.02-.03-.03-.03-.06,0-.03.02-.02.03.01.05.03,0,.05.03.05.04,0,.04-.08.02-.1-.02-.03-.06-.08-.04-.13.05-.02.05-.06.09-.09.09-.03,0-.04.01-.03.04,0,.02,0,.03-.02.03-.02,0-.03.02-.02.05,0,.05-.02.07-.06.04-.05-.04-.13-.02-.16.03-.01.03-.04.06-.07.06s-.04.02-.04.04c0,.04-.09.08-.16.07-.03,0-.03,0,0,0,.05.02.04.06-.02.06s-.16.07-.16.11c0,.01-.05.05-.12.07-.07.03-.18.1-.25.16-.07.06-.15.11-.19.12-.03,0-.06.02-.07.04ZM128.72,56.75h0s.03.02.04.05h0s.01.06,0,.07c0,0-.02,0-.02-.03s-.01-.04-.03-.03c-.02,0-.03,0-.03-.02,0-.03.01-.04.03-.04ZM128.63,56.92s.03.01.03.03-.01.03-.03.03-.03-.01-.03-.03.01-.03.03-.03ZM128.35,57.06s0,0,.01,0c.02,0,.03.02.03.03s-.01.01-.03.01-.03-.01-.03-.03c0-.01,0-.02.02-.02Z"/>
        <path d="M128.04,61.13s-.05,0-.05.02.02.03.05.03.05.02.05.04c0,.02.02.04.05.03.03,0,.05-.03.05-.1,0-.05,0-.1-.02-.11-.01,0,0-.03.01-.06.03-.04.03-.06,0-.08,0,0-.02-.01-.03-.01h0s-.08.05-.06.08c0,.02,0,.03-.02.03-.02,0-.02.03,0,.07.02.06.02.07-.03.06Z"/>
      </g>
      <text id="cevicheText" class="cls-1" x="120.11" y="143.61" clip-path="url(#text-clip)"><tspan>Ceviche</tspan></text>
    </g>
    <rect id="frame" class="cls-2" x="1" y="1" width="238.21" height="174.82"/>
  </g>
</svg>
