<?xml version="1.0" standalone="no"?>
<!DOCTYPE svg PUBLIC "-//W3C//DTD SVG 20010904//EN"
 "http://www.w3.org/TR/2001/REC-SVG-20010904/DTD/svg10.dtd">
<svg version="1.0" xmlns="http://www.w3.org/2000/svg"
 width="309.000000pt" height="130.000000pt" viewBox="0 0 309.000000 130.000000"
 preserveAspectRatio="xMidYMid meet">

<g transform="translate(0.000000,130.000000) scale(0.100000,-0.100000)" fill="#000000" stroke="none">
<path d="M1971 1018 c-1 -26 31 -68 52 -68 5 0 -2 9 -16 20 -14 11 -28 33 -30 48 l-4 27 -2 -27z"/>
<path d="M2134 1032 c-15 -10 -77 -110 -93 -150 -8 -18 -26 -46 -41 -62 -16 -17 -24 -30 -20 -30 11 0 69 68 82 96 6 13 16 24 21 24 6 0 8 3 4 6 -9 9 40 101 60 113 10 6 14 10 8 11 -5 0 -15 -4 -21 -8z"/>
<path d="M292 1012 c-125 -45 -152 -135 -63 -215 61 -55 138 -79 257 -79 l101 0 11 -31 c6 -17 11 -31 9 -32 -1 0 -37 -18 -80 -39 -157 -76 -269 -214 -271 -336 -1 -52 2 -62 28 -89 34 -36 84 -55 131 -49 31 4 34 1 40 -29 8 -45 50 -76 93 -69 36 5 62 22 62 39 0 5 -8 3 -18 -6 -25 -23 -59 -21 -73 4 -15 28 -3 86 19 93 75 24 238 171 277 250 29 58 31 79 9 100 -55 56 -255 -103 -331 -264 -35 -74 -40 -79 -69 -80 -35 0 -71 29 -80 66 -18 71 14 167 82 251 47 57 168 137 208 136 17 0 53 -2 80 -3 54 -2 83 17 72 45 -6 17 -13 17 -111 2 -5 -1 -11 14 -13 34 -3 34 -1 37 42 53 100 38 224 138 244 196 16 44 -9 73 -56 64 -116 -21 -274 -152 -298 -247 -4 -18 -13 -27 -28 -28 -140 -9 -275 36 -317 105 -38 62 -17 119 54 145 97 37 260 -21 260 -92 0 -34 19 -30 32 7 12 35 0 54 -52 84 -59 33 -179 39 -251 14z m631 -29 c18 -30 -77 -127 -174 -178 -37 -19 -72 -35 -78 -35 -17 0 24 74 66 121 59 66 170 120 186 92z m-158 -333 c-3 -5 -19 -10 -35 -10 -16 0 -32 5 -35 10 -4 6 10 10 35 10 25 0 39 -4 35 -10z m43 -152 c6 -31 -42 -111 -108 -178 -65 -66 -155 -128 -167 -116 -12 12 78 173 127 228 69 77 140 109 148 66z"/>
<path d="M2537 978 c-41 -51 -67 -100 -66 -125 0 -12 4 -9 11 10 5 15 15 27 21 27 5 0 7 3 4 6 -9 9 9 39 50 85 19 21 31 39 25 39 -6 0 -26 -19 -45 -42z"/>
<path d="M2886 957 c-46 -56 -106 -157 -105 -176 0 -9 10 3 22 27 11 23 27 42 35 42 7 0 10 4 7 10 -5 9 11 35 74 121 26 36 2 19 -33 -24z"/>
<path d="M1920 957 c0 -5 5 -17 11 -28 5 -11 14 -39 19 -62 l9 -42 -3 46 c-2 26 -11 57 -20 70 -9 13 -16 20 -16 16z"/>
<path d="M2241 894 c-19 -25 -27 -44 -17 -44 2 0 13 16 25 35 24 42 21 45 -8 9z"/>
<path d="M2426 898 c-9 -12 -16 -29 -15 -38 0 -13 1 -13 6 0 3 8 12 23 21 33 8 9 13 20 10 23 -3 3 -13 -5 -22 -18z"/>
<path d="M2561 894 c-22 -27 -27 -44 -13 -44 7 0 45 70 38 70 -3 0 -14 -12 -25 -26z"/>
<path d="M2128 893 c-18 -21 -30 -53 -20 -53 6 1 43 70 37 70 -1 0 -9 -8 -17 -17z"/>
<path d="M2303 898 c-18 -24 -24 -38 -16 -38 10 0 36 40 30 46 -2 3 -9 -1 -14 -8z"/>
<path d="M2617 865 c-10 -24 -37 -65 -60 -91 -27 -30 -34 -43 -20 -36 33 18 109 139 101 163 -2 5 -11 -11 -21 -36z"/>
<path d="M2744 885 c-9 -13 -14 -29 -12 -35 2 -7 11 5 21 24 19 41 15 47 -9 11z"/>
<path d="M2337 870 c3 -11 9 -20 13 -20 5 0 6 9 3 20 -3 11 -9 20 -13 20 -5 0 -6 -9 -3 -20z"/>
<path d="M2166 865 c4 -8 13 -15 21 -15 12 0 12 2 -1 15 -8 8 -17 15 -20 15 -3 0 -3 -7 0 -15z"/>
<path d="M2774 858 l-19 -23 23 19 c21 18 27 26 19 26 -2 0 -12 -10 -23 -22z"/>
<path d="M1523 843 c-7 -2 -25 -27 -39 -54 -30 -53 -45 -59 -95 -34 -26 14 -30 14 -35 1 -9 -23 4 -36 36 -36 16 0 31 -3 33 -8 10 -14 -151 -257 -189 -284 -56 -42 -81 -37 -105 18 -11 25 -27 48 -35 51 -10 3 -42 -21 -88 -66 -68 -65 -106 -87 -106 -61 0 64 136 210 195 210 13 0 15 -6 10 -30 -8 -37 12 -41 21 -5 12 50 -33 69 -99 41 -87 -36 -194 -161 -185 -218 8 -56 63 -48 147 22 l59 49 21 -34 c18 -30 26 -35 58 -35 22 0 56 11 81 25 46 26 47 26 31 -9 -15 -33 -5 -70 24 -83 32 -15 89 11 182 81 l71 54 12 -28 c25 -55 107 -66 188 -25 27 13 84 54 126 90 49 41 83 62 93 59 23 -9 18 -21 -26 -61 -53 -48 -73 -87 -59 -113 29 -54 91 -49 185 15 64 44 65 44 65 20 0 -15 9 -31 24 -40 21 -14 29 -14 64 -2 22 8 62 30 89 50 l49 36 12 -28 c36 -81 160 -64 281 37 24 21 55 46 68 56 l25 19 -7 -54 c-10 -83 -11 -84 -80 -114 -74 -31 -91 -58 -55 -87 12 -10 32 -18 45 -18 35 0 86 41 114 92 17 31 42 58 74 78 59 37 62 50 4 15 -24 -14 -46 -25 -48 -25 -2 0 -4 34 -3 75 1 68 4 79 27 103 31 32 35 52 9 52 -29 0 -60 -28 -72 -65 -19 -56 -157 -167 -225 -179 -47 -9 -89 11 -93 44 -2 20 7 33 46 62 26 21 55 49 62 64 13 24 13 28 -8 44 -18 15 -28 17 -51 9 -38 -14 -85 -64 -113 -124 -40 -85 -178 -164 -178 -102 0 23 59 117 102 164 20 21 19 53 -1 53 -18 0 -82 -63 -116 -113 -35 -52 -146 -140 -191 -151 -27 -7 -43 5 -44 30 0 5 16 36 35 68 38 64 40 73 24 109 -9 21 -7 31 16 65 34 51 31 86 -8 90 -39 5 -87 -45 -87 -90 0 -19 6 -40 13 -47 10 -10 0 -23 -48 -68 -81 -74 -137 -106 -190 -107 -88 -2 -101 51 -25 107 28 21 56 50 63 64 10 22 8 28 -11 44 -18 14 -28 16 -52 8 -40 -14 -96 -79 -111 -129 -11 -36 -24 -49 -108 -105 -101 -69 -131 -79 -131 -45 0 31 32 91 128 237 83 126 89 132 127 139 60 10 80 26 22 18 l-47 -6 25 43 c38 66 29 93 -22 72z m458 -195 c-12 -31 -31 -46 -31 -24 0 30 20 70 31 59 6 -6 6 -19 0 -35z m-301 -62 c0 -18 -45 -73 -72 -87 -19 -10 -19 -9 1 30 12 22 31 47 43 55 27 19 28 19 28 2z m796 -30 c-8 -13 -28 -34 -45 -45 l-29 -21 5 21 c8 29 75 97 80 81 3 -7 -2 -23 -11 -36z m203 -223 c-15 -40 -39 -63 -64 -63 -48 0 -36 44 20 74 46 24 56 21 44 -11z"/>
<path d="M1936 793 c-6 -14 -5 -15 5 -6 7 7 10 15 7 18 -3 3 -9 -2 -12 -12z"/>
<path d="M2297 732 c-23 -26 -22 -52 3 -52 24 0 63 36 57 53 -6 20 -42 19 -60 -1z"/>
</g>
</svg>
